<svg width="131" height="105" viewBox="0 0 131 105" fill="none" xmlns="http://www.w3.org/2000/svg">
<path d="M104.518 39.1351L102.852 42.0398C102.243 43.1164 100.943 43.5633 99.7851 43.1367C97.3883 42.2429 95.1945 40.9633 93.2648 39.3586C92.3304 38.5867 92.0867 37.2258 92.6961 36.1695L94.3617 33.2648C92.9601 31.6398 91.8633 29.7508 91.132 27.6992H87.7804C86.5617 27.6992 85.5054 26.8258 85.3023 25.607C84.8961 23.1695 84.8758 20.6101 85.3023 18.0711C85.5054 16.8523 86.5617 15.9586 87.7804 15.9586H91.132C91.8633 13.907 92.9601 12.0179 94.3617 10.3929L92.6961 7.48826C92.0867 6.43201 92.3101 5.07107 93.2648 4.29919C95.1945 2.69451 97.4086 1.41482 99.7851 0.521069C100.943 0.0945063 102.243 0.541381 102.852 1.61794L104.518 4.52263C106.651 4.13669 108.824 4.13669 110.957 4.52263L112.623 1.61794C113.232 0.541381 114.532 0.0945063 115.69 0.521069C118.087 1.41482 120.28 2.69451 122.21 4.29919C123.145 5.07107 123.388 6.43201 122.779 7.48826L121.113 10.3929C122.515 12.0179 123.612 13.907 124.343 15.9586H127.695C128.913 15.9586 129.97 16.832 130.173 18.0508C130.579 20.4883 130.599 23.0476 130.173 25.5867C129.97 26.8054 128.913 27.6992 127.695 27.6992H124.343C123.612 29.7508 122.515 31.6398 121.113 33.2648L122.779 36.1695C123.388 37.2258 123.165 38.5867 122.21 39.3586C120.28 40.9633 118.066 42.2429 115.69 43.1367C114.532 43.5633 113.232 43.1164 112.623 42.0398L110.957 39.1351C108.845 39.5211 106.651 39.5211 104.518 39.1351ZM102.385 27.1914C110.205 33.2039 119.123 24.2867 113.11 16.4664C105.29 10.4336 96.3726 19.3711 102.385 27.1914ZM78.9648 58.4523L85.8101 61.8648C87.8617 63.0429 88.7554 65.5414 87.9429 67.7758C86.1351 72.6914 82.5804 77.2008 79.2898 81.1414C77.7867 82.9492 75.1867 83.3961 73.1351 82.2179L67.2242 78.8054C63.9742 81.5882 60.1961 83.8023 56.0726 85.2445V92.0695C56.0726 94.4258 54.3867 96.457 52.0711 96.8633C47.0742 97.7164 41.8336 97.757 36.6539 96.8633C34.3179 96.457 32.5914 94.4461 32.5914 92.0695V85.2445C28.4679 83.782 24.6898 81.5882 21.4398 78.8054L15.5289 82.1976C13.4976 83.3758 10.8773 82.9289 9.37418 81.1211C6.08356 77.1804 2.61012 72.6711 0.802307 67.7758C-0.0101929 65.5617 0.883557 63.0633 2.93512 61.8648L9.69918 58.4523C8.907 54.207 8.907 49.8398 9.69918 45.5742L2.93512 42.1414C0.883557 40.9633 -0.0305054 38.4648 0.802307 36.2508C2.61012 31.3351 6.08356 26.8258 9.37418 22.8851C10.8773 21.0773 13.4773 20.6304 15.5289 21.8086L21.4398 25.2211C24.6898 22.4383 28.4679 20.2242 32.5914 18.782V11.9367C32.5914 9.60076 34.257 7.56951 36.5726 7.16326C41.5695 6.31013 46.8304 6.26951 52.0101 7.14294C54.3461 7.54919 56.0726 9.56013 56.0726 11.9367V18.7617C60.1961 20.2242 63.9742 22.4179 67.2242 25.2008L73.1351 21.7883C75.1664 20.6101 77.7867 21.057 79.2898 22.8648C82.5804 26.8054 86.0336 31.3148 87.8414 36.2304C88.6539 38.4445 87.8617 40.9429 85.8101 42.1414L78.9648 45.5539C79.757 49.8195 79.757 54.1867 78.9648 58.4523ZM55.0773 62.7383C67.1023 47.0976 49.2476 29.2429 33.607 41.2679C21.582 56.9086 39.4367 74.7633 55.0773 62.7383ZM104.518 99.8492L102.852 102.754C102.243 103.83 100.943 104.277 99.7851 103.851C97.3883 102.957 95.1945 101.677 93.2648 100.073C92.3304 99.3008 92.0867 97.9398 92.6961 96.8836L94.3617 93.9789C92.9601 92.3539 91.8633 90.4648 91.132 88.4133H87.7804C86.5617 88.4133 85.5054 87.5398 85.3023 86.3211C84.8961 83.8836 84.8758 81.3242 85.3023 78.7851C85.5054 77.5664 86.5617 76.6726 87.7804 76.6726H91.132C91.8633 74.6211 92.9601 72.732 94.3617 71.107L92.6961 68.2023C92.0867 67.1461 92.3101 65.7851 93.2648 65.0133C95.1945 63.4086 97.4086 62.1289 99.7851 61.2351C100.943 60.8086 102.243 61.2554 102.852 62.332L104.518 65.2367C106.651 64.8508 108.824 64.8508 110.957 65.2367L112.623 62.332C113.232 61.2554 114.532 60.8086 115.69 61.2351C118.087 62.1289 120.28 63.4086 122.21 65.0133C123.145 65.7851 123.388 67.1461 122.779 68.2023L121.113 71.107C122.515 72.732 123.612 74.6211 124.343 76.6726H127.695C128.913 76.6726 129.97 77.5461 130.173 78.7648C130.579 81.2023 130.599 83.7617 130.173 86.3008C129.97 87.5195 128.913 88.4133 127.695 88.4133H124.343C123.612 90.4648 122.515 92.3539 121.113 93.9789L122.779 96.8836C123.388 97.9398 123.165 99.3008 122.21 100.073C120.28 101.677 118.066 102.957 115.69 103.851C114.532 104.277 113.232 103.83 112.623 102.754L110.957 99.8492C108.845 100.235 106.651 100.235 104.518 99.8492ZM102.385 87.8851C110.205 93.8976 119.123 84.9804 113.11 77.1601C105.29 71.1476 96.3726 80.0648 102.385 87.8851Z" fill="#6FB6CC"/>
</svg>
