<svg width="88" height="130" viewBox="0 0 88 130" fill="none" xmlns="http://www.w3.org/2000/svg">
<path d="M65.332 43.3418C71.0795 43.3418 76.5916 41.0586 80.6557 36.9945C84.7198 32.9305 87.0029 27.4184 87.0029 21.6709C87.0029 15.9234 84.7198 10.4113 80.6557 6.34726C76.5916 2.28318 71.0795 0 65.332 0L21.9902 0C16.2461 0 10.7373 2.28184 6.67558 6.34354C2.61388 10.4052 0.332037 15.9141 0.332037 21.6582C0.332037 27.4023 2.61388 32.9112 6.67558 36.9729C10.7373 41.0346 16.2461 43.3164 21.9902 43.3164C16.2428 43.3164 10.7307 45.5996 6.6666 49.6637C2.60252 53.7277 0.319342 59.2398 0.319342 64.9873C0.319342 70.7348 2.60252 76.2469 6.6666 80.3109C10.7307 84.375 16.2428 86.6582 21.9902 86.6582C17.7041 86.6557 13.5136 87.9242 9.9484 90.3034C6.38324 92.6825 3.60365 96.0654 1.96111 100.024C0.318572 103.983 -0.113136 108.34 0.720578 112.544C1.55429 116.749 3.61598 120.611 6.64494 123.644C9.67389 126.676 13.5341 128.742 17.7373 129.581C21.9406 130.42 26.2981 129.993 30.2589 128.355C34.2197 126.717 37.6059 123.942 39.9892 120.379C42.3725 116.817 43.6459 112.628 43.6484 108.342V43.3418H65.332ZM65.332 43.3418C61.0485 43.3418 56.8611 44.612 53.2994 46.9919C49.7377 49.3717 46.9617 52.7542 45.3225 56.7118C43.6832 60.6693 43.2543 65.024 44.09 69.2253C44.9257 73.4266 46.9884 77.2857 50.0174 80.3147C53.0463 83.3436 56.9055 85.4064 61.1067 86.242C65.308 87.0777 69.6628 86.6488 73.6203 85.0096C77.5778 83.3703 80.9603 80.5943 83.3402 77.0327C85.72 73.471 86.9902 69.2836 86.9902 65C86.9896 59.2561 84.7075 53.7476 80.646 49.6861C76.5844 45.6245 71.076 43.3425 65.332 43.3418Z" fill="white"/>
</svg>
