<svg width="40" height="41" viewBox="0 0 40 41" fill="none" xmlns="http://www.w3.org/2000/svg">
<path d="M20.0089 10.622C14.3303 10.622 9.74998 15.2143 9.74998 20.9077C9.74998 26.601 14.3303 31.1933 20.0089 31.1933C25.6875 31.1933 30.2678 26.601 30.2678 20.9077C30.2678 15.2143 25.6875 10.622 20.0089 10.622ZM20.0089 27.5947C16.3393 27.5947 13.3393 24.5958 13.3393 20.9077C13.3393 17.2195 16.3303 14.2207 20.0089 14.2207C23.6875 14.2207 26.6785 17.2195 26.6785 20.9077C26.6785 24.5958 23.6785 27.5947 20.0089 27.5947ZM33.0803 10.2013C33.0803 11.5351 32.0089 12.6004 30.6875 12.6004C29.3571 12.6004 28.2946 11.5262 28.2946 10.2013C28.2946 8.87642 29.366 7.8022 30.6875 7.8022C32.0089 7.8022 33.0803 8.87642 33.0803 10.2013ZM39.875 12.6362C39.7232 9.42249 38.991 6.57581 36.6428 4.23043C34.3035 1.88505 31.4643 1.151 28.2589 0.989868C24.9553 0.80188 15.0535 0.80188 11.75 0.989868C8.55355 1.14205 5.71427 1.8761 3.36605 4.22148C1.01784 6.56685 0.294625 9.41353 0.133911 12.6272C-0.0535889 15.9394 -0.0535889 25.867 0.133911 29.1792C0.285697 32.3929 1.01784 35.2395 3.36605 37.5849C5.71427 39.9303 8.54462 40.6643 11.75 40.8255C15.0535 41.0135 24.9553 41.0135 28.2589 40.8255C31.4643 40.6733 34.3035 39.9392 36.6428 37.5849C38.9821 35.2395 39.7143 32.3929 39.875 29.1792C40.0625 25.867 40.0625 15.9484 39.875 12.6362ZM35.6071 32.733C34.9107 34.4876 33.5625 35.8393 31.8035 36.5465C29.1696 37.5939 22.9196 37.3522 20.0089 37.3522C17.0982 37.3522 10.8393 37.5849 8.21427 36.5465C6.46427 35.8483 5.11605 34.4965 4.4107 32.733C3.36605 30.0922 3.60712 23.826 3.60712 20.9077C3.60712 17.9894 3.37498 11.7142 4.4107 9.08232C5.10712 7.32776 6.45534 5.97603 8.21427 5.26884C10.8482 4.22148 17.0982 4.46318 20.0089 4.46318C22.9196 4.46318 29.1785 4.23043 31.8035 5.26884C33.5535 5.96708 34.9018 7.31881 35.6071 9.08232C36.6518 11.7231 36.4107 17.9894 36.4107 20.9077C36.4107 23.826 36.6518 30.1012 35.6071 32.733Z" fill="white"/>
</svg>
