<svg width="114" height="114" viewBox="0 0 114 114" fill="none" xmlns="http://www.w3.org/2000/svg">
<path d="M0 0.125V113.875H113.75V0.125H0ZM61.9023 88.8398C61.9023 99.9102 55.4023 104.963 45.9316 104.963C37.375 104.963 32.4238 100.545 29.8848 95.1875L38.5938 89.9316C40.2695 92.9023 41.793 95.416 45.4746 95.416C48.9785 95.416 51.2129 94.0449 51.2129 88.6875V52.3535H61.9023V88.8398ZM87.1914 104.963C77.2637 104.963 70.8398 100.24 67.7168 94.0449L76.4258 89.0176C78.7109 92.75 81.707 95.5176 86.9629 95.5176C91.3809 95.5176 94.2246 93.3086 94.2246 90.2363C94.2246 86.5801 91.3301 85.2852 86.4297 83.127L83.7637 81.9844C76.0449 78.709 70.9414 74.5703 70.9414 65.8613C70.9414 57.8379 77.0605 51.7441 86.582 51.7441C93.3867 51.7441 98.2617 54.1055 101.766 60.3008L93.4375 65.6328C91.6094 62.3574 89.6289 61.0625 86.5566 61.0625C83.4336 61.0625 81.4531 63.043 81.4531 65.6328C81.4531 68.832 83.4336 70.127 88.0293 72.1328L90.6953 73.2754C99.7852 77.1602 104.889 81.1465 104.889 90.084C104.889 99.6816 97.3223 104.963 87.1914 104.963Z" fill="white"/>
</svg>
