<svg width="131" height="105" viewBox="0 0 131 105" fill="none" xmlns="http://www.w3.org/2000/svg">
<g clip-path="url(#clip0)">
<path d="M127.248 84.8383H77.9979C77.8476 88.8622 75.01 91.3383 71.3476 91.3383H58.9976C55.2012 91.3383 52.2904 87.7897 52.3412 84.8383H3.74762C1.96012 84.8383 0.49762 86.3008 0.49762 88.0883V91.3383C0.49762 98.4883 6.34762 104.338 13.4976 104.338H117.498C124.648 104.338 130.498 98.4883 130.498 91.3383V88.0883C130.498 86.3008 129.035 84.8383 127.248 84.8383ZM117.498 10.0883C117.498 4.72576 113.11 0.338257 107.748 0.338257H23.2476C17.8851 0.338257 13.4976 4.72576 13.4976 10.0883V78.3383H117.498V10.0883ZM104.498 65.3383H26.4976V13.3383H104.498V65.3383Z" fill="#6FB6CC"/>
</g>
<defs>
<clipPath id="clip0">
<rect width="130" height="104" fill="white" transform="translate(0.49762 0.338257)"/>
</clipPath>
</defs>
</svg>
