<svg width="114" height="128" viewBox="0 0 114 128" fill="none" xmlns="http://www.w3.org/2000/svg">
<path d="M56.875 127.984C55.1738 127.984 53.4473 127.527 51.9492 126.664L36.2832 117.396C33.9473 116.076 35.0898 115.619 35.8516 115.365C38.9746 114.273 39.6094 114.045 42.9355 112.141C43.291 111.938 43.748 112.014 44.1035 112.242L56.1387 119.377C56.5703 119.631 57.1797 119.631 57.5859 119.377L104.482 92.3105C104.914 92.0566 105.193 91.5488 105.193 91.041V36.9082C105.193 36.375 104.914 35.8926 104.457 35.6133L57.5859 8.57227C57.1543 8.31836 56.5703 8.31836 56.1387 8.57227L9.29297 35.6387C8.83594 35.8926 8.55664 36.4004 8.55664 36.9336V91.041C8.55664 91.5488 8.83594 92.0566 9.29297 92.2852L22.1406 99.6992C29.123 103.178 33.3887 99.0898 33.3887 94.9512V41.5293C33.3887 40.7676 33.998 40.1836 34.7598 40.1836H40.7012C41.4375 40.1836 42.0723 40.7676 42.0723 41.5293V94.9766C42.0723 104.27 36.9941 109.602 28.1836 109.602C25.4668 109.602 23.334 109.602 17.3926 106.656L5.10352 99.5723C2.05664 97.8203 0.177734 94.5449 0.177734 91.0156V36.9082C0.177734 33.4043 2.05664 30.1035 5.10352 28.3516L51.9492 1.28516C54.9199 -0.390625 58.8555 -0.390625 61.8008 1.28516L108.697 28.377C111.744 30.1289 113.623 33.4043 113.623 36.9336V91.041C113.623 94.5449 111.744 97.8203 108.697 99.5977L61.8008 126.664C60.3027 127.527 58.6016 127.984 56.875 127.984ZM94.7324 74.6387C94.7324 64.5078 87.8769 61.8164 73.4805 59.9121C58.9062 57.9824 57.4336 56.9922 57.4336 53.5898C57.4336 50.7715 58.6777 47.0137 69.4687 47.0137C79.0918 47.0137 82.6465 49.0957 84.1191 55.5957C84.2461 56.2051 84.8047 56.6621 85.4394 56.6621H91.5332C91.914 56.6621 92.2695 56.5098 92.5234 56.2305C92.7773 55.9512 92.9043 55.5703 92.8789 55.1895C91.9394 43.9922 84.5 38.7871 69.4687 38.7871C56.0879 38.7871 48.1152 44.4238 48.1152 53.8945C48.1152 64.1523 56.0625 66.9961 68.8848 68.2656C84.2461 69.7637 85.4394 72.0234 85.4394 75.0449C85.4394 80.2754 81.2246 82.5098 71.3476 82.5098C58.9316 82.5098 56.2148 79.3867 55.3008 73.2168C55.1992 72.5566 54.6406 72.0742 53.9551 72.0742H47.8867C47.125 72.0742 46.541 72.6836 46.541 73.4199C46.541 81.3164 50.832 90.7363 71.373 90.7363C86.2012 90.7109 94.7324 84.8457 94.7324 74.6387Z" fill="white"/>
</svg>
