<svg width="131" height="131" viewBox="0 0 131 131" fill="none" xmlns="http://www.w3.org/2000/svg">
<path d="M52.3708 1.60716C27.1325 6.53295 6.79463 26.8201 1.81807 51.9822C-7.57646 99.4626 35.2575 134.857 67.529 129.855C77.9899 128.23 83.1188 115.992 78.32 106.572C72.4548 95.0446 80.8337 81.5876 93.7829 81.5876H114.019C123.109 81.5876 130.472 74.072 130.498 65.0075C130.371 24.9919 93.9606 -6.49244 52.3708 1.60716ZM24.8728 81.5876C20.3786 81.5876 16.7478 77.9568 16.7478 73.4626C16.7478 68.9685 20.3786 65.3376 24.8728 65.3376C29.3669 65.3376 32.9978 68.9685 32.9978 73.4626C32.9978 77.9568 29.3669 81.5876 24.8728 81.5876ZM32.9978 49.0876C28.5036 49.0876 24.8728 45.4568 24.8728 40.9626C24.8728 36.4685 28.5036 32.8376 32.9978 32.8376C37.4919 32.8376 41.1227 36.4685 41.1227 40.9626C41.1227 45.4568 37.4919 49.0876 32.9978 49.0876ZM65.4977 32.8376C61.0036 32.8376 57.3727 29.2068 57.3727 24.7126C57.3727 20.2185 61.0036 16.5876 65.4977 16.5876C69.9919 16.5876 73.6227 20.2185 73.6227 24.7126C73.6227 29.2068 69.9919 32.8376 65.4977 32.8376ZM97.9977 49.0876C93.5036 49.0876 89.8727 45.4568 89.8727 40.9626C89.8727 36.4685 93.5036 32.8376 97.9977 32.8376C102.492 32.8376 106.123 36.4685 106.123 40.9626C106.123 45.4568 102.492 49.0876 97.9977 49.0876Z" fill="#6FB6CC"/>
</svg>
