<svg width="130" height="114" viewBox="0 0 130 114" fill="none" xmlns="http://www.w3.org/2000/svg">
<path d="M106.184 36.9922C104.812 36.5352 103.441 36.1035 102.07 35.6973C102.299 34.7578 102.502 33.8184 102.705 32.8789C105.828 17.7461 103.771 5.58398 96.8398 1.57226C90.1621 -2.26172 79.2695 1.72461 68.25 11.3223C67.1582 12.2617 66.0918 13.252 65.0762 14.2422C64.3906 13.582 63.6797 12.9219 62.9688 12.2871C51.416 2.0293 39.8379 -2.28711 32.9062 1.75C26.2539 5.60937 24.2734 17.0605 27.0664 31.3809C27.3457 32.8027 27.6504 34.1992 28.0059 35.6211C26.3809 36.0781 24.7812 36.5859 23.2832 37.1191C9.72461 41.8164 0 49.2305 0 56.8984C0 64.8203 10.3594 72.7676 24.4512 77.5918C25.5938 77.9727 26.7363 78.3535 27.9043 78.6836C27.5234 80.207 27.1934 81.7051 26.8887 83.2539C24.2227 97.3457 26.3047 108.518 32.957 112.352C39.8125 116.312 51.3398 112.25 62.5625 102.424C63.4512 101.637 64.3398 100.824 65.2285 99.9609C66.3457 101.053 67.5137 102.094 68.6816 103.109C79.5488 112.453 90.2891 116.236 96.916 112.402C103.771 108.441 106.006 96.4316 103.111 81.8066C102.883 80.6895 102.629 79.5469 102.35 78.3789C103.162 78.1504 103.949 77.8965 104.736 77.6426C119.387 72.793 130 64.9473 130 56.8984C130 49.2051 119.996 41.7402 106.184 36.9922ZM71.8301 15.4355C81.2754 7.20898 90.0859 3.98437 94.0977 6.29492C98.3887 8.75781 100.039 18.7109 97.3477 31.7871C97.1699 32.6504 96.9922 33.4883 96.7637 34.3262C91.127 33.0566 85.4141 32.1426 79.6758 31.6348C76.375 26.9121 72.7695 22.3926 68.8594 18.1523C69.8496 17.2129 70.8145 16.3242 71.8301 15.4355ZM42.4531 70.0762C43.748 72.2852 45.0684 74.4941 46.4648 76.6523C42.5039 76.2207 38.5684 75.5859 34.6836 74.748C35.8008 71.0918 37.1973 67.3086 38.8223 63.4492C39.9902 65.6836 41.1836 67.8926 42.4531 70.0762ZM34.7598 39.5312C38.416 38.7187 42.3008 38.0586 46.3379 37.5508C44.9922 39.6582 43.6719 41.8164 42.4277 44C41.1836 46.1582 39.9648 48.3672 38.8223 50.6016C37.2227 46.8184 35.877 43.1113 34.7598 39.5312ZM41.7168 57.0254C43.3926 53.5215 45.2207 50.0937 47.1504 46.7168C49.0801 43.3398 51.1621 40.0645 53.3457 36.8398C57.1543 36.5605 61.0391 36.4082 65 36.4082C68.9609 36.4082 72.8711 36.5605 76.6543 36.8398C78.8125 40.0391 80.8691 43.3144 82.8242 46.666C84.7793 50.0176 86.6074 53.4453 88.334 56.9238C86.6328 60.4277 84.8047 63.8809 82.8496 67.2832C80.9199 70.6602 78.8633 73.9355 76.7051 77.1855C72.9219 77.4648 68.9863 77.5918 65 77.5918C61.0137 77.5918 57.1543 77.4648 53.4219 77.2363C51.2129 74.0117 49.1309 70.7109 47.1758 67.334C45.2207 63.957 43.418 60.5293 41.7168 57.0254ZM87.5723 70.0254C88.8672 67.791 90.0859 65.5312 91.2793 63.2461C92.9043 66.9277 94.3262 70.6601 95.5703 74.4941C91.6348 75.3828 87.6484 76.0684 83.6367 76.5254C85.0078 74.3926 86.3027 72.209 87.5723 70.0254ZM91.2285 50.6016C90.0352 48.3672 88.8164 46.1328 87.5469 43.9492C86.3027 41.791 85.0078 39.6582 83.6621 37.5508C87.75 38.0586 91.6602 38.7441 95.3164 39.582C94.1484 43.3398 92.7773 46.9961 91.2285 50.6016ZM65.0508 22.0371C67.7168 24.9316 70.2305 27.9785 72.5664 31.127C67.5391 30.8984 62.4863 30.8984 57.459 31.127C59.9473 27.8516 62.5117 24.8047 65.0508 22.0371ZM35.5977 6.47266C39.8633 3.98437 49.334 7.53906 59.3125 16.375C59.9473 16.9336 60.582 17.543 61.2422 18.1523C57.3066 22.3926 53.6758 26.9121 50.3496 31.6348C44.6113 32.1426 38.9238 33.0312 33.2871 34.2754C32.957 32.9805 32.6777 31.6602 32.3984 30.3398C30.0117 18.0508 31.5859 8.7832 35.5977 6.47266ZM29.377 73.4023C28.3105 73.0977 27.2695 72.7676 26.2285 72.4121C20.8203 70.7109 14.6758 68.0195 10.2324 64.4902C7.66797 62.7129 5.94141 59.9707 5.45898 56.8984C5.45898 52.252 13.4824 46.3105 25.0605 42.2734C26.5078 41.7656 27.9805 41.3086 29.4531 40.8769C31.1797 46.3867 33.2617 51.7949 35.6738 57.0254C33.2363 62.332 31.1289 67.8164 29.377 73.4023ZM58.9824 98.2852C54.793 102.119 49.9434 105.166 44.6621 107.248C41.8438 108.594 38.5938 108.721 35.6992 107.578C31.6621 105.242 29.9863 96.2793 32.2715 84.2188C32.5508 82.7969 32.8555 81.375 33.2109 79.9785C38.8984 81.1973 44.6367 82.0351 50.4512 82.4668C53.8027 87.2148 57.4844 91.7598 61.4199 96.0254C60.6074 96.8125 59.7949 97.5742 58.9824 98.2852ZM65.2031 92.1152C62.6133 89.3223 60.0234 86.2246 57.5098 82.8984C59.9473 83 62.4609 83.0508 65 83.0508C67.6152 83.0508 70.1797 83 72.7188 82.873C70.3828 86.0976 67.8691 89.1699 65.2031 92.1152ZM98.3887 99.7324C98.1602 102.83 96.6367 105.725 94.1992 107.68C90.1621 110.016 81.5547 106.969 72.2617 98.9961C71.1953 98.082 70.1289 97.0918 69.0371 96.0762C72.9219 91.7851 76.502 87.2402 79.752 82.4668C85.5664 81.9844 91.3555 81.0957 97.0684 79.8008C97.3223 80.8418 97.5508 81.8828 97.7539 82.8984C98.998 88.3828 99.2012 94.0957 98.3887 99.7324ZM103.01 72.4375C102.299 72.666 101.588 72.8945 100.852 73.0976C99.0742 67.5625 96.8906 62.1543 94.377 56.8984C96.8145 51.7188 98.8711 46.3867 100.598 40.9277C101.918 41.3086 103.188 41.7148 104.406 42.1211C116.238 46.1836 124.541 52.2266 124.541 56.8477C124.541 61.8242 115.68 68.248 103.01 72.4375ZM65 68.6289C71.4238 68.6289 76.6289 63.4238 76.6289 57C76.6289 50.5762 71.4238 45.3711 65 45.3711C58.5762 45.3711 53.3711 50.5762 53.3711 57C53.3711 63.4238 58.5762 68.6289 65 68.6289Z" fill="white"/>
</svg>
