<svg width="131" height="115" viewBox="0 0 131 115" fill="none" xmlns="http://www.w3.org/2000/svg">
<path d="M122.373 32.9633H8.62262C4.13533 32.9633 0.49762 29.3255 0.49762 24.8383V8.58826C0.49762 4.10097 4.13533 0.463257 8.62262 0.463257H122.373C126.86 0.463257 130.498 4.10097 130.498 8.58826V24.8383C130.498 29.3255 126.86 32.9633 122.373 32.9633ZM110.185 10.6195C106.82 10.6195 104.091 13.3477 104.091 16.7133C104.091 20.0788 106.82 22.807 110.185 22.807C113.551 22.807 116.279 20.0788 116.279 16.7133C116.279 13.3477 113.551 10.6195 110.185 10.6195ZM93.9351 10.6195C90.5696 10.6195 87.8414 13.3477 87.8414 16.7133C87.8414 20.0788 90.5696 22.807 93.9351 22.807C97.3006 22.807 100.029 20.0788 100.029 16.7133C100.029 13.3477 97.3006 10.6195 93.9351 10.6195ZM122.373 73.5883H8.62262C4.13533 73.5883 0.49762 69.9505 0.49762 65.4633V49.2133C0.49762 44.726 4.13533 41.0883 8.62262 41.0883H122.373C126.86 41.0883 130.498 44.726 130.498 49.2133V65.4633C130.498 69.9505 126.86 73.5883 122.373 73.5883ZM110.185 51.2445C106.82 51.2445 104.091 53.9727 104.091 57.3383C104.091 60.7038 106.82 63.432 110.185 63.432C113.551 63.432 116.279 60.7038 116.279 57.3383C116.279 53.9727 113.551 51.2445 110.185 51.2445ZM93.9351 51.2445C90.5696 51.2445 87.8414 53.9727 87.8414 57.3383C87.8414 60.7038 90.5696 63.432 93.9351 63.432C97.3006 63.432 100.029 60.7038 100.029 57.3383C100.029 53.9727 97.3006 51.2445 93.9351 51.2445ZM122.373 114.213H8.62262C4.13533 114.213 0.49762 110.576 0.49762 106.088V89.8383C0.49762 85.351 4.13533 81.7133 8.62262 81.7133H122.373C126.86 81.7133 130.498 85.351 130.498 89.8383V106.088C130.498 110.576 126.86 114.213 122.373 114.213ZM110.185 91.8695C106.82 91.8695 104.091 94.5977 104.091 97.9633C104.091 101.329 106.82 104.057 110.185 104.057C113.551 104.057 116.279 101.329 116.279 97.9633C116.279 94.5977 113.551 91.8695 110.185 91.8695ZM93.9351 91.8695C90.5696 91.8695 87.8414 94.5977 87.8414 97.9633C87.8414 101.329 90.5696 104.057 93.9351 104.057C97.3006 104.057 100.029 101.329 100.029 97.9633C100.029 94.5977 97.3006 91.8695 93.9351 91.8695Z" fill="#6FB6CC"/>
</svg>
