<svg width="111" height="127" viewBox="0 0 111 127" fill="none" xmlns="http://www.w3.org/2000/svg">
<path d="M98.7118 0.338257H12.2833C5.77658 0.338257 0.497559 5.62927 0.497559 12.1508V114.526C0.497559 121.047 5.77658 126.338 12.2833 126.338H98.7118C105.219 126.338 110.498 121.047 110.498 114.526V12.1508C110.498 5.62927 105.219 0.338257 98.7118 0.338257ZM55.4976 118.463C51.1516 118.463 47.6404 114.944 47.6404 110.588C47.6404 106.232 51.1516 102.713 55.4976 102.713C59.8435 102.713 63.3547 106.232 63.3547 110.588C63.3547 114.944 59.8435 118.463 55.4976 118.463ZM98.7118 91.8851C98.7118 93.5094 97.386 94.8383 95.7654 94.8383H15.2297C13.6092 94.8383 12.2833 93.5094 12.2833 91.8851V15.1039C12.2833 13.4797 13.6092 12.1508 15.2297 12.1508H95.7654C97.386 12.1508 98.7118 13.4797 98.7118 15.1039V91.8851Z" fill="#6FB6CC"/>
</svg>
