<svg width="40" height="41" viewBox="0 0 40 41" fill="none" xmlns="http://www.w3.org/2000/svg">
<path d="M34.0089 6.51486C30.2679 2.83182 25.2857 0.806152 19.9911 0.806152C9.0625 0.806152 0.169643 9.54021 0.169643 20.2736C0.169643 23.7024 1.08036 27.0522 2.8125 30.0074L0 40.0919L10.5089 37.3822C13.4018 38.9343 16.6607 39.7499 19.9821 39.7499H19.9911C30.9107 39.7499 40 31.0158 40 20.2824C40 15.0823 37.75 10.1979 34.0089 6.51486ZM19.9911 36.4702C17.0268 36.4702 14.125 35.6898 11.5982 34.2165L11 33.8658L4.76786 35.4705L6.42857 29.4988L6.03571 28.8849C4.38393 26.3068 3.51786 23.3341 3.51786 20.2736C3.51786 11.3554 10.9107 4.09458 20 4.09458C24.4018 4.09458 28.5357 5.77825 31.6429 8.83868C34.75 11.8991 36.6607 15.9592 36.6518 20.2824C36.6518 29.2094 29.0714 36.4702 19.9911 36.4702ZM29.0268 24.3513C28.5357 24.1057 26.0982 22.9307 25.6429 22.7728C25.1875 22.6062 24.8571 22.5273 24.5268 23.0184C24.1964 23.5094 23.25 24.5968 22.9554 24.93C22.6696 25.2545 22.375 25.2983 21.8839 25.0528C18.9732 23.6234 17.0625 22.501 15.1429 19.2652C14.6339 18.4058 15.6518 18.4672 16.5982 16.6081C16.7589 16.2837 16.6786 16.0031 16.5536 15.7575C16.4286 15.512 15.4375 13.118 15.0268 12.1446C14.625 11.1976 14.2143 11.3291 13.9107 11.3116C13.625 11.294 13.2946 11.294 12.9643 11.294C12.6339 11.294 12.0982 11.4168 11.6429 11.8991C11.1875 12.3902 9.91071 13.5652 9.91071 15.9592C9.91071 18.3532 11.6875 20.6682 11.9286 20.9927C12.1786 21.3172 15.4196 26.2279 20.3929 28.3412C23.5357 29.6741 24.7679 29.7881 26.3393 29.5601C27.2946 29.4198 29.2679 28.3851 29.6786 27.2451C30.0893 26.1051 30.0893 25.1317 29.9643 24.93C29.8482 24.7108 29.5179 24.588 29.0268 24.3513Z" fill="white"/>
</svg>
