<svg width="131" height="131" viewBox="0 0 131 131" fill="none" xmlns="http://www.w3.org/2000/svg">
<path d="M88.6932 40.1581C84.8928 16.8174 75.9291 0.429199 65.4976 0.429199C55.0662 0.429199 46.1025 16.8174 42.3021 40.1581H88.6932ZM40.3363 65.25C40.3363 71.0525 40.6508 76.6198 41.2012 81.9779H89.7678C90.3182 76.6198 90.6327 71.0525 90.6327 65.25C90.6327 59.4475 90.3182 53.8802 89.7678 48.522H41.2012C40.6508 53.8802 40.3363 59.4475 40.3363 65.25ZM125.439 40.1581C117.943 22.4108 102.768 8.68862 84.0279 3.14749C90.423 11.9819 94.8262 25.2859 97.1327 40.1581H125.439ZM46.9412 3.14749C28.2275 8.68862 13.0258 22.4108 5.55609 40.1581H33.8625C36.1428 25.2859 40.546 11.9819 46.9412 3.14749ZM128.244 48.522H98.1811C98.7315 54.0109 99.046 59.6304 99.046 65.25C99.046 70.8695 98.7315 76.4891 98.1811 81.9779H128.217C129.659 76.6198 130.471 71.0525 130.471 65.25C130.471 59.4475 129.659 53.8802 128.244 48.522ZM31.9492 65.25C31.9492 59.6304 32.2637 54.0109 32.8142 48.522H2.75165C1.33633 53.8802 0.49762 59.4475 0.49762 65.25C0.49762 71.0525 1.33633 76.6198 2.75165 81.9779H32.7879C32.2637 76.4891 31.9492 70.8695 31.9492 65.25ZM42.3021 90.3419C46.1025 113.683 55.0662 130.071 65.4976 130.071C75.9291 130.071 84.8928 113.683 88.6932 90.3419H42.3021ZM84.0541 127.352C102.768 121.811 117.969 108.089 125.465 90.3419H97.1589C94.8524 105.214 90.4492 118.518 84.0541 127.352ZM5.55609 90.3419C13.0521 108.089 28.2275 121.811 46.9674 127.352C40.5722 118.518 36.169 105.214 33.8625 90.3419H5.55609Z" fill="#6FB6CC"/>
</svg>
